<?xml version="1.0" encoding="UTF-8" standalone="no"?>
<!-- Created with Inkscape (http://www.inkscape.org/) -->

<svg
   xmlns:dc="http://purl.org/dc/elements/1.1/"
   xmlns:cc="http://creativecommons.org/ns#"
   xmlns:rdf="http://www.w3.org/1999/02/22-rdf-syntax-ns#"
   xmlns:svg="http://www.w3.org/2000/svg"
   xmlns="http://www.w3.org/2000/svg"
   xmlns:xlink="http://www.w3.org/1999/xlink"
   xmlns:sodipodi="http://sodipodi.sourceforge.net/DTD/sodipodi-0.dtd"
   xmlns:inkscape="http://www.inkscape.org/namespaces/inkscape"
   id="svg2"
   version="1.1"
   inkscape:version="0.47pre4 r22446"
   width="4084"
   height="3372"
   sodipodi:docname="nla.map-rm02795-sd.sid.jpg.svg">
  <metadata
     id="metadata8">
    <rdf:RDF>
      <cc:Work
         rdf:about="">
        <dc:format>image/svg+xml</dc:format>
        <dc:type
           rdf:resource="http://purl.org/dc/dcmitype/StillImage" />
        <dc:title />
      </cc:Work>
    </rdf:RDF>
  </metadata>
  <defs
     id="defs6">
    <inkscape:perspective
       sodipodi:type="inkscape:persp3d"
       inkscape:vp_x="0 : 0.5 : 1"
       inkscape:vp_y="0 : 1000 : 0"
       inkscape:vp_z="1 : 0.5 : 1"
       inkscape:persp3d-origin="0.5 : 0.33333333 : 1"
       id="perspective10" />
  </defs>
  <sodipodi:namedview
     pagecolor="#ffffff"
     bordercolor="#666666"
     borderopacity="1"
     objecttolerance="10"
     gridtolerance="10"
     guidetolerance="10"
     inkscape:pageopacity="0"
     inkscape:pageshadow="2"
     inkscape:window-width="1680"
     inkscape:window-height="1001"
     id="namedview4"
     showgrid="false"
     inkscape:zoom="0.19795635"
     inkscape:cx="3190.0176"
     inkscape:cy="1423.2796"
     inkscape:window-x="0"
     inkscape:window-y="25"
     inkscape:window-maximized="1"
     inkscape:current-layer="svg2"
     inkscape:object-nodes="true"
     inkscape:snap-global="true" />
  <image
     xlink:href="./nla.map-rm02795-sd.sid.jpg"
     style="opacity:1"
     y="0"
     x="0"
     id="image12"
     height="3372"
     width="4084" />
  <g
     inkscape:groupmode="layer"
     id="layer4"
     inkscape:label="parish"
     style="opacity:1" />
  <path
     style="fill:none;stroke:#000000;stroke-width:1px;stroke-linecap:butt;stroke-linejoin:miter;stroke-opacity:1"
     d="m 216.58816,484.36838 279.73339,-10.10323 276.57613,-9.47179 279.73342,-7.57743 275.9447,-3.15726 278.4704,-1.89436 275.9447,-1.89435 280.9963,1.2629 276.5762,3.78871 281.6277,6.31453 284.1536,5.68307 282.8906,11.36614 282.8907,11.36614 281.6277,11.36615"
     id="lat-29_lon141-154"
     inkscape:label="#path2824" />
  <path
     style="fill:none;stroke:#000000;stroke-width:1px;stroke-linecap:butt;stroke-linejoin:miter;stroke-opacity:1"
     d="m 3875.2231,181.90271 63.1452,39.15004"
     id="lat-28_lon154"
     inkscape:label="#path2826" />
  <path
     style="fill:none;stroke:#000000;stroke-width:1px;stroke-linecap:butt;stroke-linejoin:miter;stroke-opacity:1"
     d="m 235.53173,794.41149 273.41887,-9.47179 276.57613,-8.84033 275.31327,-7.57743 277.2075,-3.15726 272.7875,-3.78871 272.1559,0 277.2076,0 274.6818,4.42016 277.2076,3.78872 282.2592,7.57743 279.1019,10.10323 280.3649,10.73469 279.1019,11.36615"
     id="lat-30_lon141-154"
     inkscape:label="#path2828" />
  <path
     style="fill:none;stroke:#000000;stroke-width:1px;stroke-linecap:butt;stroke-linejoin:miter;stroke-opacity:1"
     d="m 253.21239,1108.8748 272.78742,-11.9976 272.15597,-5.0517 272.15592,-8.2088 270.8931,-3.7887 271.5245,-1.263 270.2616,-2.5258 274.6818,1.2629 272.7874,3.7888 272.156,5.683 280.9963,6.946 274.6817,8.2089 275.9447,11.3661 277.8391,10.7347"
     id="lat-31_lon141-154"
     inkscape:label="#path2830" />
  <path
     style="fill:none;stroke:#000000;stroke-width:1px;stroke-linecap:butt;stroke-linejoin:miter;stroke-opacity:1"
     d="m 268.9987,1426.4953 270.89306,-10.7347 267.7358,-8.2089 270.26164,-5.683 269.6301,-3.1573 267.7358,-5.0516 267.7358,-2.5258 270.8931,3.7887 270.893,2.5258 270.8931,4.4202 274.6818,5.0516 274.0503,10.1032 274.6818,6.946 271.5245,12.629"
     id="lat-32_lon141-154"
     inkscape:label="#path2832" />
  <path
     style="fill:none;stroke:#000000;stroke-width:1px;stroke-linecap:butt;stroke-linejoin:miter;stroke-opacity:1"
     d="m 288.57373,1737.8013 266.47289,-10.7347 264.57854,-6.946 267.10434,-7.5774 266.4729,-4.4202 265.21,-4.4201 264.5785,0 268.3673,-1.8944 268.3672,2.5258 265.8415,3.1573 274.6817,5.6831 268.9987,7.5774 272.7875,8.2089 267.7358,10.7347"
     id="lat-33_lon141-154"
     inkscape:label="#path2834" />
  <path
     style="fill:none;stroke:#000000;stroke-width:1px;stroke-linecap:butt;stroke-linejoin:miter;stroke-opacity:1"
     d="m 304.99149,2053.5275 263.31563,-9.4718 262.68418,-6.3145 263.9471,-8.2089 264.5785,-1.8944 262.6842,-2.5258 263.3156,-3.1572 265.21,1.2629 265.21,2.5258 263.9471,3.1572 270.2616,5.0517 263.9471,8.8403 271.5245,8.2089 264.5785,10.7347"
     id="lat-34_lon141-154"
     inkscape:label="#path2836" />
  <path
     style="fill:none;stroke:#000000;stroke-width:1px;stroke-linecap:butt;stroke-linejoin:miter;stroke-opacity:1"
     d="m 321.40925,2367.3593 73.24847,34.7299"
     id="lat-35_lon141"
     inkscape:label="#path2838" />
  <path
     style="fill:none;stroke:#000000;stroke-width:1px;stroke-linecap:butt;stroke-linejoin:miter;stroke-opacity:1"
     d="m 844.2518,2350.9415 260.1584,-7.5774 260.7898,-4.4202 262.0527,-1.8943 259.5269,-1.8944 262.0528,0.6315 263.3156,1.2629 260.1584,3.1573 267.7358,4.4201"
     id="lat-35_lon143-151"
     inkscape:label="#path2840" />
  <path
     style="fill:none;stroke:#000000;stroke-width:1px;stroke-linecap:butt;stroke-linejoin:miter;stroke-opacity:1"
     d="m 1368.9887,2655.3016 260.7898,-3.1573 255.7382,-2.5258 264.5786,2.5258 259.5269,0.6315 255.7382,2.5258 264.5785,8.2089"
     id="lat-36_lon145-151"
     inkscape:label="#path2842" />
  <path
     style="fill:none;stroke:#000000;stroke-width:1px;stroke-linecap:butt;stroke-linejoin:miter;stroke-opacity:1"
     d="m 1121.4594,2975.4479 254.4753,-4.4201 257.0011,-1.8944 255.1067,-3.7887 260.7899,-0.6315 255.7382,1.8944 255.1067,1.8943 260.7898,6.3146"
     id="lat-37_lon144-151"
     inkscape:label="#path2844" />
  <path
     style="fill:none;stroke:#000000;stroke-width:1px;stroke-linecap:butt;stroke-linejoin:miter;stroke-opacity:1"
     d="m 1113.2505,2657.8274 245.0035,-3.1573"
     id="lat-36_lon144"
     sodipodi:nodetypes="cc"
     inkscape:label="#path2846" />
</svg>
