<?xml version="1.0" encoding="UTF-8" standalone="no"?>
<!-- Created with Inkscape (http://www.inkscape.org/) -->

<svg
   xmlns:dc="http://purl.org/dc/elements/1.1/"
   xmlns:cc="http://creativecommons.org/ns#"
   xmlns:rdf="http://www.w3.org/1999/02/22-rdf-syntax-ns#"
   xmlns:svg="http://www.w3.org/2000/svg"
   xmlns="http://www.w3.org/2000/svg"
   xmlns:xlink="http://www.w3.org/1999/xlink"
   xmlns:sodipodi="http://sodipodi.sourceforge.net/DTD/sodipodi-0.dtd"
   xmlns:inkscape="http://www.inkscape.org/namespaces/inkscape"
   id="svg2"
   version="1.1"
   inkscape:version="0.47pre4 r22446"
   width="3438"
   height="2736"
   sodipodi:docname="nla.map-rm03923-sd.sid.jpg">
  <metadata
     id="metadata8">
    <rdf:RDF>
      <cc:Work
         rdf:about="">
        <dc:format>image/svg+xml</dc:format>
        <dc:type
           rdf:resource="http://purl.org/dc/dcmitype/StillImage" />
        <dc:title></dc:title>
      </cc:Work>
    </rdf:RDF>
  </metadata>
  <defs
     id="defs6">
    <inkscape:perspective
       sodipodi:type="inkscape:persp3d"
       inkscape:vp_x="0 : 0.5 : 1"
       inkscape:vp_y="0 : 1000 : 0"
       inkscape:vp_z="1 : 0.5 : 1"
       inkscape:persp3d-origin="0.5 : 0.33333333 : 1"
       id="perspective10" />
  </defs>
  <sodipodi:namedview
     pagecolor="#ffffff"
     bordercolor="#666666"
     borderopacity="1"
     objecttolerance="10"
     gridtolerance="10"
     guidetolerance="10"
     inkscape:pageopacity="0"
     inkscape:pageshadow="2"
     inkscape:window-width="1680"
     inkscape:window-height="1001"
     id="namedview4"
     showgrid="false"
     inkscape:zoom="0.17251462"
     inkscape:cx="3197.6614"
     inkscape:cy="1311.1456"
     inkscape:window-x="0"
     inkscape:window-y="25"
     inkscape:window-maximized="1"
     inkscape:current-layer="svg2" />
  <image
     xlink:href="nla.map-rm03923-sd.sid.jpg"
     width="3438"
     height="2736"
     id="image12"
     x="0"
     y="0" />
  <path
     style="fill:none;stroke:#000000;stroke-width:1px;stroke-linecap:butt;stroke-linejoin:miter;stroke-opacity:1"
     d="m 285.38051,329.47892 286.40521,-0.51236 284.3558,-1.0247 281.79408,0.51235 289.4793,1.02471 281.794,-0.51236 280.257,1.53706 286.9176,1.02471 285.3805,0 282.8187,0.51235"
     id="lat-10_lon110-155"
     inkscape:label="#path2818" />
  <path
     style="fill:none;stroke:#000000;stroke-width:1px;stroke-linecap:butt;stroke-linejoin:miter;stroke-opacity:1"
     d="m 282.58475,623.86017 286.20762,0 284.0339,0.72457 283.30933,0 289.8305,0 280.411,0 280.411,2.17373 286.2077,1.44915 286.2076,1.44916 282.5847,-0.72458"
     id="lat-15_lon110-155"
     inkscape:label="#path2820" />
  <path
     style="fill:none;stroke:#000000;stroke-width:1px;stroke-linecap:butt;stroke-linejoin:miter;stroke-opacity:1"
     d="m 278.23729,925.28389 289.10593,0 284.0339,-0.72457 284.03388,0 286.9322,2.17373 281.8602,-0.72458 279.6864,1.44915 288.3814,1.44916 284.7585,1.44915 283.3093,0"
     id="lat-20_lon110-155"
     inkscape:label="#path2822" />
  <path
     style="fill:none;stroke:#000000;stroke-width:1px;stroke-linecap:butt;stroke-linejoin:miter;stroke-opacity:1"
     d="m 278.59958,1227.7945 285.12076,1.0869 285.48305,0 281.86021,0 290.555,0.7245 280.4111,0.7246 278.9618,0.7246 288.3814,2.1737 286.2076,-0.7246 279.6865,0.7246"
     id="lat-25_lon110-155"
     inkscape:label="#path2824" />
  <path
     style="fill:none;stroke:#000000;stroke-width:1px;stroke-linecap:butt;stroke-linejoin:miter;stroke-opacity:1"
     d="m 275.70127,1547.6949 286.56992,0.3623 283.67161,1.4492 282.2225,-0.7246 288.7436,1.8114 281.1356,-1.0868 280.411,1.4491 287.2945,1.4492 284.7585,1.4491 283.3093,0"
     id="lat-30_lon110-155"
     inkscape:label="#path2826" />
  <path
     style="fill:none;stroke:#000000;stroke-width:1px;stroke-linecap:butt;stroke-linejoin:miter;stroke-opacity:1"
     d="m 271.7161,1886.7966 286.93221,0.7246 285.12076,1.4491 280.41103,0.7246 289.1059,0.7246 280.0488,0.3623 280.7733,0 288.019,1.4491 287.4757,0.7246 279.143,0.3623"
     id="lat-35_lon110-155"
     sodipodi:nodetypes="cccccccccc"
     inkscape:label="#path2828" />
  <path
     style="fill:none;stroke:#000000;stroke-width:1px;stroke-linecap:butt;stroke-linejoin:miter;stroke-opacity:1"
     d="m 269.54237,2251.983 285.84534,-1.8114 284.0339,0.7246"
     id="lat-40_lon110-120"
     inkscape:label="#path2830" />
  <path
     style="fill:none;stroke:#000000;stroke-width:1px;stroke-linecap:butt;stroke-linejoin:miter;stroke-opacity:1"
     d="m 1691.161,2253.4322 279.6865,2.1737 286.9322,0 284.7584,0.7246 282.5848,2.1737"
     id="lat-40_lon135-155"
     inkscape:label="#path2832" />
</svg>
